<svg xmlns="http://www.w3.org/2000/svg" width="51.2" height="40.96"><g transform="scale(.04)" paint-order="stroke"><rect x="-640" y="-512" rx="0" ry="0" width="1280" height="1024" fill="none" transform="translate(640 512)"/><path d="m1075.99 649.676-3.85-3.89c-12.982-13.122-33.202-14.784-48.779-4.885-26.821 17.04-59.182 26.097-88.645 26.097-111.3 0-154.402-77.85-155.044-152.47-.648-75.27 46.317-156.334 155.044-156.334 29.436 0 59.23 7.603 84.775 23.614 15.294 9.596 35.01 8.168 48-4.38l1.545-1.49c17.515-16.923 15.246-45.876-4.967-59.459-35.437-23.82-75.414-36.775-117.157-38.907-.903-.193-527.368-73.945-527.368-73.945-21.565-3.022-41.488 12.01-44.51 33.575 0 21.889 17.744 42.288 39.426 45.323l239.757 33.554c47.937 6.706 77.725 56.478 59.823 101.45l-.593 1.51c-13.018 33.347-44.854 55.52-80.657 55.52H234.53c-21.774 0-39.422 17.652-39.422 39.424v4.787c0 21.772 17.648 39.418 39.421 39.418h411.575c29.657 0 55.484 19.02 65.701 46.855l.538 1.449c17.143 45.764-11.575 95.688-59.975 102.463L410.252 742.84c-21.379 2.994-37.714 22.075-35.362 43.53 2.428 22.206 22.69 37.852 44.654 34.782 0 0 528.872-74.242 530.893-74.87 43.364-2.352 84.08-14.473 119.517-37.493 20.295-13.19 23.054-41.901 6.036-59.113" fill="#6c7086"/><path d="M1055.127 512.39c0 66.556-53.953 120.509-120.51 120.509-66.556 0-120.509-53.953-120.509-120.51 0-66.556 53.953-120.51 120.51-120.51 66.556 0 120.51 53.954 120.51 120.51" fill="#a6adc8"/></g></svg>